# xmcd CD database file
#
# Track frame offsets:
#	150
#	48411
#	75205
#	105321
#	124607
#	163982
#	198023
#	221160
#
# Disc length: 3360 seconds
#
# Revision: 0
# Processed by: cddbd v1.5.2PL0 Copyright (c) Steve Scherf et al.
# Submitted via: CDex 1.70beta2
#
DISCID=5f0d1e08
DTITLE=Mukura Blues y Cajon - Mukura - Bumgum blues
DYEAR=2000
DGENRE=Blues
TTITLE0=Sunkutukunplash
TTITLE1=Niña de Guatemala (J Marti)
TTITLE2=Kutimusaq
TTITLE3=Crema de caña (instr)
TTITLE4=Inolvidable
TTITLE5=A mi padre
TTITLE6=Bum Gum Dum
TTITLE7=Oleo
EXTD=YEAR: 2000
EXTT0=
EXTT1=
EXTT2=
EXTT3=
EXTT4=
EXTT5=
EXTT6=
EXTT7=
PLAYORDER=
